<?xml version="1.0" encoding="UTF-8"?>
<svg width="460px" height="512px" viewBox="0 0 460 512" version="1.1" xmlns="http://www.w3.org/2000/svg" xmlns:xlink="http://www.w3.org/1999/xlink">
    <title>hop</title>
    <g id="Page-1" stroke="none" stroke-width="1" fill="none" fill-rule="evenodd">
        <g id="hop" fill-rule="nonzero">
            <path d="M147.269247,134.030884 L166.888372,209.562791 L229.995349,299.931981 L252.618605,153.6 L229.995349,0 C229.995349,0 173.731312,61.8900837 147.269247,134.030884 Z" id="Path" fill="#84CC16"></path>
            <path d="M312.282084,132.840186 C285.641414,61.2101953 229.995349,0 229.995349,0 L229.995349,299.931981 L293.102326,219.088372 L312.282084,132.840186 Z" id="Path" fill="#3F6212"></path>
            <path d="M229.988205,282.195349 C230.157284,266.623405 227.221023,249.335665 220.609079,230.533358 C189.514009,142.102623 66.8769116,75.9236465 66.8769116,75.9236465 C66.8769116,75.9236465 31.9561302,158.592595 34.2327442,236.948837 L229.989395,460.8 L245.474419,357.209302 L229.988205,282.195349 Z" id="Path" fill="#D9F99D"></path>
            <path d="M393.113786,75.9236465 C393.113786,75.9236465 270.477879,142.102623 239.381619,230.533358 C232.769674,249.336856 229.833414,266.623405 230.002493,282.195349 L230.002493,447.702326 L425.759144,236.948837 C428.034567,158.592595 393.113786,75.9236465 393.113786,75.9236465 Z" id="Path" fill="#84CC16"></path>
            <path d="M6.40613953,230.542884 L0.0271866796,230.542884 L0.0271866796,293.058084 C-0.204613953,416.235758 104.501767,515.347051 229.995349,511.913079 L241.902326,482.232558 L229.995349,449.397879 C229.975107,328.536112 129.882679,230.561935 6.40613953,230.542884 Z" id="Path" fill="#84CC16"></path>
            <path d="M453.584558,230.542884 L459.963511,230.542884 L459.963511,293.058084 C460.195312,416.235758 355.48893,515.347051 229.995349,511.913079 L229.995349,449.397879 C230.015591,328.536112 330.108019,230.561935 453.584558,230.542884 Z" id="Path" fill="#3F6212"></path>
        </g>
    </g>
</svg>
